<?xml version="1.0" encoding="UTF-8" standalone="no"?>
<svg width="1182px" height="502px" viewBox="0 0 1182 502" version="1.1" xmlns="http://www.w3.org/2000/svg" xmlns:xlink="http://www.w3.org/1999/xlink" xmlns:sketch="http://www.bohemiancoding.com/sketch/ns">
    <!-- Generator: Sketch 3.3.3 (12081) - http://www.bohemiancoding.com/sketch -->
    <title>Desktop Copy 2</title>
    <desc>Created with Sketch.</desc>
    <defs></defs>
    <g id="Page-1" stroke="none" stroke-width="1" fill="none" fill-rule="evenodd" sketch:type="MSPage">
        <g id="Desktop-Copy-2" sketch:type="MSArtboardGroup">
            <text id="Arrival-to-Norway" sketch:type="MSTextLayer" font-family="Gotham" font-size="24" font-weight="313" fill="#535353">
                <tspan x="58" y="336">Arrival to Norway</tspan>
            </text>
            <path d="M67.5497983,268.012634 L761.508789,268.012634" id="Line" stroke="#979797" stroke-linecap="square" sketch:type="MSShapeGroup"></path>
            <path d="M164.549798,219.512634 L164.549798,295.925194" id="Line-Copy" stroke="#979797" stroke-linecap="square" sketch:type="MSShapeGroup"></path>
            <path d="M570.049798,207.512634 L570.049798,283.925194" id="Line-Copy-3" stroke="#979797" stroke-linecap="square" sketch:type="MSShapeGroup"></path>
            <path d="M375.549798,127.5 L375.549798,359.5" id="Line-Copy-2" stroke="#979797" stroke-linecap="square" sketch:type="MSShapeGroup"></path>
            <circle id="Oval-1" stroke="#979797" fill="#0288D1" sketch:type="MSShapeGroup" cx="163" cy="178" r="41"></circle>
            <text id="Transit-reception-pr" sketch:type="MSTextLayer" font-family="Gotham" font-size="24" font-weight="313" fill="#535353">
                <tspan x="201" y="390">Transit reception program</tspan>
            </text>
            <text id="Residence-permit-gra" sketch:type="MSTextLayer" font-family="Gotham" font-size="24" font-weight="313" fill="#535353">
                <tspan x="414.5" y="325">Residence permit granted</tspan>
            </text>
            <text id="Regular-program" sketch:type="MSTextLayer" font-family="Gotham" font-size="24" font-weight="313" fill="#535353">
                <tspan x="947" y="373.652">Regular program</tspan>
            </text>
            <text id="Fast-Track-" sketch:type="MSTextLayer" font-family="Gotham" font-size="24" font-weight="bold" fill="#535353">
                <tspan x="947" y="139">Fast Track </tspan>
                <tspan x="947" y="168">Refugee Program</tspan>
            </text>
            <path d="M374,207 C406.032515,207 432,181.032515 432,149 C432,116.967485 406.032515,91 374,91 C341.967485,91 316,116.967485 316,149 C316,181.032515 341.967485,207 374,207 Z" id="Oval-1-Copy-2" stroke="#979797" fill="#CDDC39" sketch:type="MSShapeGroup"></path>
            <circle id="Oval-1-Copy-3" stroke="#979797" fill="#03A9F4" sketch:type="MSShapeGroup" cx="571.5" cy="168" r="41"></circle>
            <path d="M760.5,268.5 L845.426437,183.573561" id="Line" stroke="#979797" stroke-linecap="square" sketch:type="MSShapeGroup"></path>
            <circle id="Oval-1-Copy" stroke="#979797" fill="#B3E5FC" sketch:type="MSShapeGroup" cx="871" cy="149" r="48"></circle>
            <path d="M760.5,268.5 L845.00148,353.00148" id="Line-Copy-6" stroke="#979797" stroke-linecap="square" sketch:type="MSShapeGroup"></path>
            <path d="M870.674,421 C897.003623,421 918.348,399.655623 918.348,373.326 C918.348,346.996377 897.003623,325.652 870.674,325.652 C844.344377,325.652 823,346.996377 823,373.326 C823,399.655623 844.344377,421 870.674,421 Z" id="Oval-1-Copy-5" stroke="#979797" fill="#CDDC39" sketch:type="MSShapeGroup"></path>
            <path d="M672,281 L672,255 L698,268 L672,281 Z" id="Triangle-1-Copy" stroke="#979797" fill="#D8D8D8" sketch:type="MSShapeGroup"></path>
            <text id="time" sketch:type="MSTextLayer" font-family="Gotham" font-size="24" font-style="italic" font-weight="260" fill="#535353">
                <tspan x="40.5" y="258">time</tspan>
            </text>
            <path d="M242,281 L242,255 L268,268 L242,281 Z" id="Triangle-1-Copy-2" stroke="#979797" fill="#D8D8D8" sketch:type="MSShapeGroup"></path>
        </g>
    </g>
</svg>